<?xml version="1.0" encoding="utf-8"?>
<!-- Generator: Adobe Illustrator 16.0.0, SVG Export Plug-In . SVG Version: 6.00 Build 0)  -->
<!DOCTYPE svg PUBLIC "-//W3C//DTD SVG 1.1//EN" "http://www.w3.org/Graphics/SVG/1.1/DTD/svg11.dtd">
<svg version="1.1" id="Layer_1" xmlns="http://www.w3.org/2000/svg" xmlns:xlink="http://www.w3.org/1999/xlink" x="0px" y="0px"
	 width="612px" height="792px" viewBox="0 0 612 792" enable-background="new 0 0 612 792" xml:space="preserve">
<g>
	<path fill="#FFFFFF" d="M0,217.461v353.077l306,176.539l306-176.539V217.461L306,40.923L0,217.461z M557.077,246.885v294.23
		L306,688.23L54.923,541.115v-294.23L306,99.769L557.077,246.885z"/>
	<polygon fill="#FFFFFF" points="149.673,482.27 100.67,511.167 306,629.385 306,570.538 	"/>
	<polygon fill="#FFFFFF" points="459,303.769 459,480.308 510,510.386 510,275.001 	"/>
	<polygon fill="#FFFFFF" points="306,158.615 100.042,273.895 151.882,303.138 306,217.461 	"/>
</g>
<g>
	<path d="M0,219.461v353.077l306,176.539l306-176.539V219.461L306,42.923L0,219.461z M557.077,248.885v294.23L306,690.23
		L54.923,543.115v-294.23L306,101.769L557.077,248.885z"/>
	<polygon points="149.673,484.27 100.67,513.167 306,631.385 306,572.538 	"/>
	<polygon points="459,305.769 459,482.308 510,512.386 510,277.001 	"/>
	<polygon points="306,160.615 100.042,275.895 151.882,305.138 306,219.461 	"/>
</g>
</svg>
